<svg width="16" height="16" viewBox="0 0 16 16" fill="none" xmlns="http://www.w3.org/2000/svg">
<path d="M7.25 3.00006C7.02734 2.99714 6.81641 3.09381 6.67285 3.26374L4.25 5.99421H3.5C2.67969 5.99421 2 6.62702 2 7.49421V8.99421C2 9.81159 2.68262 10.4942 3.5 10.4942H4.25L6.67285 13.2247C6.83105 13.4151 7.04199 13.4971 7.25 13.4942V3.00006ZM12.0957 3.72077C11.9521 3.71784 11.8057 3.76178 11.6768 3.84674C11.334 4.08112 11.2432 4.54694 11.4746 4.88971C12.8428 6.91999 12.8428 9.56842 11.4746 11.5987C11.2432 11.9415 11.334 12.4073 11.6768 12.6417C12.0195 12.8731 12.4854 12.7823 12.7197 12.4395C13.5723 11.171 14 9.70905 14 8.24421C14 6.77936 13.5723 5.31745 12.7197 4.04889C12.5732 3.83503 12.3359 3.72077 12.0957 3.72077V3.72077ZM9.5293 5.23542C9.3623 5.22956 9.18945 5.27936 9.0459 5.38776C8.84961 5.53717 8.75 5.76276 8.75 5.99128V6.03522C8.75879 6.17878 8.80566 6.31647 8.89941 6.43659C9.70508 7.50885 9.70508 8.97956 8.89941 10.0489C8.80566 10.1719 8.75879 10.3096 8.75 10.4503V10.4971C8.75 10.7257 8.84961 10.9512 9.0459 11.1007C9.37695 11.3497 9.8457 11.2823 10.0947 10.9512C10.6982 10.1514 11 9.19928 11 8.24421C11 7.28913 10.6982 6.33698 10.0947 5.53425C9.95703 5.34967 9.74609 5.24714 9.5293 5.23542V5.23542Z" style="marker:none" color="#000" overflow="visible" fill="context-fill"  stroke="context-stroke" fill-opacity="context-fill-opacity" stroke-opacity="context-stroke-opacity" fill-rule="evenodd"/>
</svg>
