<svg width="16" height="16" viewBox="0 0 16 16" fill="none" xmlns="http://www.w3.org/2000/svg">
<path d="M7.25 3.00006C7.02734 2.99714 6.81641 3.09381 6.67285 3.26374L4.25 5.99421H3.5C2.67969 5.99421 2 6.62702 2 7.49421V8.99421C2 9.81159 2.68262 10.4942 3.5 10.4942H4.25L6.67285 13.2247C6.83105 13.4151 7.04199 13.4971 7.25 13.4942V3.00006Z" style="marker:none" color="#000" overflow="visible" fill="context-fill"  stroke="context-stroke" fill-opacity="context-fill-opacity" stroke-opacity="context-stroke-opacity" fill-rule="evenodd"/>
<path d="M9.8 6C9.5875 6 9.38437 6.08438 9.23437 6.23438C8.92188 6.54688 8.92188 7.05312 9.23437 7.36562L10.2688 8.4L9.23437 9.43437C8.92188 9.74687 8.92188 10.2531 9.23437 10.5656C9.54687 10.8781 10.0531 10.8781 10.3656 10.5656L11.4 9.53125L12.4344 10.5656C12.7469 10.8781 13.2531 10.8781 13.5656 10.5656C13.8781 10.2531 13.8781 9.74687 13.5656 9.43437L12.5312 8.4L13.5656 7.36562C13.8781 7.05312 13.8781 6.54688 13.5656 6.23438C13.4156 6.08438 13.2125 6 13 6C12.7875 6 12.5844 6.08438 12.4344 6.23438L11.4 7.26875L10.3656 6.23438C10.2156 6.08438 10.0125 6 9.8 6V6Z" style="marker:none" color="#000" overflow="visible" fill="context-fill"  stroke="context-stroke" fill-opacity="context-fill-opacity" stroke-opacity="context-stroke-opacity" fill-rule="evenodd"/>
</svg>
