<?xml version="1.0" encoding="UTF-8"?>
<svg width="16" height="16" version="1.1" viewBox="0 0 16 16" xmlns="http://www.w3.org/2000/svg" xmlns:osb="http://www.openswatchbook.org/uri/2009/osb">
    <title>Gnome Symbolic Icon Theme</title>
<path d="M8 1.33331C5.80078 1.33331 4 3.13409 4 5.33331V7.33331C2.89062 7.33331 2 8.22394 2 9.33331V14.3333C2 14.888 2.44531 15.3333 3 15.3333H13C13.5547 15.3333 14 14.888 14 14.3333V9.33331C14 8.22394 13.1094 7.33331 12 7.33331V5.33331C12 3.13409 10.1992 1.33331 8 1.33331ZM8 3.33331C9.125 3.33331 10 4.20831 10 5.33331V7.33331H6V5.33331C6 4.20831 6.875 3.33331 8 3.33331Z" color="#000" overflow="visible" fill="context-fill" stroke="context-stroke" fill-opacity="context-fill-opacity" stroke-opacity="context-stroke-opacity"/>
</svg>
