<?xml version="1.0" encoding="UTF-8"?>
<svg width="16" height="16" enable-background="new" version="1.1" xmlns="http://www.w3.org/2000/svg">
    <title>Gnome Symbolic Icons</title>
<path d="M4 8C4.00602 8.43083 4.15061 8.7603 4.48193 9.11511L8.89156 13.6325C9.13252 13.8859 9.40361 14 9.74698 14C10.4337 14 11 13.4108 11 12.7012C11 12.34 10.8615 12.0042 10.5904 11.7318L6.8976 8.01267L10.5904 4.27452C10.8554 4.00212 11 3.66629 11 3.29892C11 2.5892 10.4337 2 9.74698 2C9.40963 2 9.13856 2.12034 8.89156 2.36754L4.48193 6.8912C4.14459 7.24606 4 7.58189 4 8Z" fill="context-fill" stroke="context-stroke" fill-opacity="context-fill-opacity" stroke-opacity="context-stroke-opacity"/>
</svg>
