<?xml version="1.0" encoding="UTF-8"?>
<svg width="16" height="16" enable-background="new" version="1.1" xmlns="http://www.w3.org/2000/svg">
    <title>Gnome Symbolic Icons</title>
    <path d="M8 4C7.56917 4.00602 7.2397 4.15061 6.88489 4.48193L2.36747 8.89156C2.11405 9.13252 2 9.40361 2 9.74698C2 10.4337 2.58923 11 3.29885 11C3.65998 11 3.99577 10.8615 4.26822 10.5904L7.98733 6.8976L11.7255 10.5904C11.9979 10.8554 12.3337 11 12.7011 11C13.4108 11 14 10.4337 14 9.74698C14 9.40963 13.8797 9.13856 13.6325 8.89156L9.1088 4.48193C8.75394 4.14459 8.41811 4 8 4Z" fill="context-fill" stroke="context-stroke" fill-opacity="context-fill-opacity" stroke-opacity="context-stroke-opacity"/>
</svg>
