<svg xmlns="http://www.w3.org/2000/svg" width="16" height="16"><g color="#bebebe" fill="context-fill" stroke="context-stroke" fill-opacity="context-fill-opacity"><path d="M2 0C1.44922 0 1 0.449219 1 1V9C1 11.5 2.81641 13.2461 4.44531 14.332C6.07422 15.418 7.68359 15.9492 7.68359 15.9492C7.89063 16.0195 8.10938 16.0195 8.31641 15.9492C8.31641 15.9492 9.92578 15.418 11.5547 14.332C13.1836 13.2461 15 11.5 15 9V1C15 0.449219 14.5508 0 14 0H2ZM3 2H13V9C13 10.5 11.8164 11.7539 10.4453 12.668C9.23047 13.4766 8.26562 13.7969 8 13.8945C7.73438 13.7969 6.76953 13.4766 5.55469 12.668C4.18359 11.7539 3 10.5 3 9V2ZM4 3V9C4 10 4.86719 11.0078 6.10938 11.8359C7.04297 12.457 7.58203 12.6211 8 12.7852C8.41797 12.6211 8.95703 12.457 9.89062 11.8359C11.1328 11.0078 12 10 12 9V3H4Z" color="#000" overflow="visible" fill="context-fill" stroke="context-stroke" fill-opacity="context-fill-opacity" stroke-opacity="context-stroke-opacity"/></g></svg>
