<?xml version="1.0" encoding="UTF-8"?>
<svg height="16px" viewBox="0 0 16 16" width="16px" xmlns="http://www.w3.org/2000/svg">
    <path d="M8 1C7.79301 1 7.58993 1.07115 7.4181 1.19671L0.419632 6.55385C-0.0294887 6.90123 -0.134935 7.56668 0.185308 8.04799C0.376672 8.33259 0.677387 8.5 1.00154 8.49581V12.7857C1.00154 14.5477 2.35671 16 4.00088 16H11.9991C13.6433 16 14.9985 14.5854 14.9985 12.7857V8.49581C15.3226 8.5 15.6233 8.33259 15.8147 8.04799C16.1349 7.56668 16.0295 6.90123 15.5804 6.55385L8.5819 1.19671C8.41007 1.07115 8.20699 1 8 1ZM8 3.3856L12.9989 7.21094V12.7857C12.9989 13.3884 12.5615 14 11.9991 14H10V9.57143C10 8.97712 9.55457 8.5 9 8.5H7.00022C6.44565 8.5 6.00044 8.97712 6.00044 9.57143L6 14H4.00088C3.4385 14 3.0011 13.3884 3.0011 12.7857V7.21094L8 3.3856Z" color="#000" overflow="visible" fill="context-fill" stroke="context-stroke" fill-opacity="context-fill-opacity" stroke-opacity="context-stroke-opacity"/>
</svg>
