<svg xmlns="http://www.w3.org/2000/svg" width="16" height="16">
<path d="M4.5 5.5C3.39543 5.5 2.5 6.39543 2.5 7.5V11.5117C2.5 12.6163 3.39543 13.5117 4.5 13.5117H8.51172C9.61629 13.5117 10.5117 12.6163 10.5117 11.5117V7.5C10.5117 6.39543 9.61629 5.5 8.51172 5.5H4.5ZM4 7.5C4 7.22386 4.22386 7 4.5 7H8.5C8.77614 7 9 7.22386 9 7.5V11.5C9 11.7761 8.77614 12 8.5 12H4.5C4.22386 12 4 11.7761 4 11.5V7.5Z" style="line-height:normal;font-variant-ligatures:normal;font-variant-position:normal;font-variant-caps:normal;font-variant-numeric:normal;font-variant-alternates:normal;font-feature-settings:normal;text-indent:0;text-align:start;text-decoration-line:none;text-decoration-style:solid;text-decoration-color:#000;text-transform:none;text-orientation:mixed;white-space:normal;shape-padding:0;isolation:auto;mix-blend-mode:normal;solid-color:#000;solid-opacity:1;marker:none" color="#000" font-weight="400" font-family="sans-serif" overflow="visible" fill="context-fill" stroke="context-stroke" fill-opacity="context-fill-opacity" stroke-opacity="context-stroke-opacity"/>
<path fill-rule="evenodd" clip-rule="evenodd" d="M6.91669 4.6H10.9167C11.1376 4.6 11.3167 4.77909 11.3167 5V9C11.3167 9.22091 11.1376 9.4 10.9167 9.4H9.25V11H10.9167C12.0213 11 12.9167 10.1046 12.9167 9V5C12.9167 3.89543 12.0213 3 10.9167 3H6.91669C5.81212 3 4.91669 3.89543 4.91669 5V6H6.51669V5C6.51669 4.77909 6.69577 4.6 6.91669 4.6Z" style="line-height:normal;font-variant-ligatures:normal;font-variant-position:normal;font-variant-caps:normal;font-variant-numeric:normal;font-variant-alternates:normal;font-feature-settings:normal;text-indent:0;text-align:start;text-decoration-line:none;text-decoration-style:solid;text-decoration-color:#000;text-transform:none;text-orientation:mixed;white-space:normal;shape-padding:0;isolation:auto;mix-blend-mode:normal;solid-color:#000;solid-opacity:1;marker:none" color="#000" font-weight="400" font-family="sans-serif" overflow="visible" fill="context-fill" stroke="context-stroke" fill-opacity="context-fill-opacity" stroke-opacity="context-stroke-opacity"/>
</svg>
