<svg width="64" height="64" viewBox="0 0 64 64" fill="none" xmlns="http://www.w3.org/2000/svg">
<circle cx="32" cy="32" r="30.7692" fill="#252525" stroke="#919191" stroke-width="2.46154"/>
<path d="M11.9336 26.2587H14.7343L17.6923 33.4755H17.8182L20.7762 26.2587H23.5769V37H21.3741V30.0087H21.285L18.5052 36.9476H17.0052L14.2255 29.9825H14.1364V37H11.9336V26.2587ZM29.0459 37.1573C28.2312 37.1573 27.5267 36.9843 26.9323 36.6381C26.3413 36.2885 25.8851 35.8024 25.5634 35.1801C25.2417 34.5542 25.0809 33.8287 25.0809 33.0035C25.0809 32.1713 25.2417 31.4441 25.5634 30.8217C25.8851 30.1958 26.3413 29.7098 26.9323 29.3636C27.5267 29.014 28.2312 28.8392 29.0459 28.8392C29.8606 28.8392 30.5634 29.014 31.1543 29.3636C31.7487 29.7098 32.2067 30.1958 32.5284 30.8217C32.8501 31.4441 33.0109 32.1713 33.0109 33.0035C33.0109 33.8287 32.8501 34.5542 32.5284 35.1801C32.2067 35.8024 31.7487 36.2885 31.1543 36.6381C30.5634 36.9843 29.8606 37.1573 29.0459 37.1573ZM29.0564 35.4266C29.427 35.4266 29.7365 35.3217 29.9847 35.1119C30.233 34.8986 30.42 34.6084 30.5459 34.2413C30.6753 33.8741 30.7399 33.4563 30.7399 32.9878C30.7399 32.5192 30.6753 32.1014 30.5459 31.7343C30.42 31.3671 30.233 31.0769 29.9847 30.8636C29.7365 30.6503 29.427 30.5437 29.0564 30.5437C28.6823 30.5437 28.3676 30.6503 28.1123 30.8636C27.8606 31.0769 27.67 31.3671 27.5406 31.7343C27.4148 32.1014 27.3518 32.5192 27.3518 32.9878C27.3518 33.4563 27.4148 33.8741 27.5406 34.2413C27.67 34.6084 27.8606 34.8986 28.1123 35.1119C28.3676 35.3217 28.6823 35.4266 29.0564 35.4266ZM36.698 32.3427V37H34.4637V28.9441H36.5931V30.3654H36.6875C36.8658 29.8969 37.1648 29.5262 37.5844 29.2535C38.0039 28.9773 38.5127 28.8392 39.1106 28.8392C39.67 28.8392 40.1578 28.9615 40.5739 29.2063C40.9899 29.451 41.3134 29.8007 41.5441 30.2552C41.7749 30.7063 41.8903 31.2448 41.8903 31.8706V37H39.656V32.2692C39.6595 31.7762 39.5337 31.3916 39.2784 31.1154C39.0232 30.8357 38.6718 30.6958 38.2242 30.6958C37.9235 30.6958 37.6578 30.7605 37.427 30.8899C37.1997 31.0192 37.0214 31.208 36.892 31.4563C36.7662 31.701 36.7015 31.9965 36.698 32.3427ZM47.2911 37.1573C46.4764 37.1573 45.7719 36.9843 45.1774 36.6381C44.5865 36.2885 44.1302 35.8024 43.8086 35.1801C43.4869 34.5542 43.326 33.8287 43.326 33.0035C43.326 32.1713 43.4869 31.4441 43.8086 30.8217C44.1302 30.1958 44.5865 29.7098 45.1774 29.3636C45.7719 29.014 46.4764 28.8392 47.2911 28.8392C48.1058 28.8392 48.8086 29.014 49.3995 29.3636C49.9939 29.7098 50.4519 30.1958 50.7736 30.8217C51.0953 31.4441 51.2561 32.1713 51.2561 33.0035C51.2561 33.8287 51.0953 34.5542 50.7736 35.1801C50.4519 35.8024 49.9939 36.2885 49.3995 36.6381C48.8086 36.9843 48.1058 37.1573 47.2911 37.1573ZM47.3016 35.4266C47.6722 35.4266 47.9816 35.3217 48.2299 35.1119C48.4781 34.8986 48.6652 34.6084 48.7911 34.2413C48.9205 33.8741 48.9851 33.4563 48.9851 32.9878C48.9851 32.5192 48.9205 32.1014 48.7911 31.7343C48.6652 31.3671 48.4781 31.0769 48.2299 30.8636C47.9816 30.6503 47.6722 30.5437 47.3016 30.5437C46.9274 30.5437 46.6128 30.6503 46.3575 30.8636C46.1058 31.0769 45.9152 31.3671 45.7858 31.7343C45.66 32.1014 45.597 32.5192 45.597 32.9878C45.597 33.4563 45.66 33.8741 45.7858 34.2413C45.9152 34.6084 46.1058 34.8986 46.3575 35.1119C46.6128 35.3217 46.9274 35.4266 47.3016 35.4266Z" fill="white"/>
</svg>
